General

Format                           : AVI
Format/Info                      : Audio Video Interleave
Format profile                   : OpenDML
File size                        : 687 MiB
Duration                         : 2h 17mn
Overall bit rate                 : 700 Kbps
Writing application              : AVI-Mux GUI 1.17.8.3, Feb 16 201019:42:50

Video
ID                               : 0
Format                           : MPEG-4 Visual
Format profile                   : Advanced Simple@L5
Format settings, BVOP            : Yes
Format settings, QPel            : Yes
Format settings, GMC             : No warppoints
Format settings, Matrix          : Default (H.263)
Codec ID                         : XVID
Codec ID/Hint                    : XviD
Duration                         : 2h 17mn
Bit rate                         : 600 Kbps
Width                            : 640 pixels
Height                           : 272 pixels
Display aspect ratio             : 2.35:1
Frame rate                       : 29.970 fps
Color space                      : YUV
Chroma subsampling               : 4:2:0
Bit depth                        : 8 bits
Scan type                        : Progressive
Compression mode                 : Lossy
Bits/(Pixel*Frame)               : 0.115
Stream size                      : 589 MiB (86%)
Writing library                  : XviD 1.2.1 (UTC 2008-12-04)

Audio
ID                               : 1
Format                           : MPEG Audio
Format version                   : Version 1
Format profile                   : Layer 3
Mode                             : Joint stereo
Mode extension                   : MS Stereo
Codec ID                         : 55
Codec ID/Hint                    : MP3
Duration                         : 2h 17mn
Bit rate mode                    : Constant
Bit rate                         : 96.0 Kbps
Channel(s)                       : 2 channels
Sampling rate                    : 32.0 KHz
Compression mode                 : Lossy
Stream size                      : 94.2 MiB (14%)
Alignment                        : Aligned on interleaves
Interleave, duration             : 949 ms (28.45 video frames)
Interleave, preload duration     : 216 ms
Title                            : VTS_06_1 T80 3_2ch 448Kbps DELAY 0ms
Writing library                  : LAME3.98r
Encoding settings                : -m j -V 4 -q 2 -lowpass 15.1 -b 96

ScreenShots:
 
http://img46.imageshack.us/img46/1929/vlcsnap2010120520h17m47.png 
http://img560.imageshack.us/img560/125/vlcsnap2010120520h18m18.png 
http://img522.imageshack.us/img522/6117/vlcsnap2010120520h19m09.png 
http://img146.imageshack.us/img146/7332/vlcsnap2010120520h20m47.png 
http://img841.imageshack.us/img841/6236/vlcsnap2010120520h21m09.png 
http://img149.imageshack.us/img149/4626/vlcsnap2010120520h21m21.png 
http://img268.imageshack.us/img268/7194/vlcsnap2010120520h22m03.png 
http://img63.imageshack.us/img63/8288/vlcsnap2010120520h22m39.png 
http://img15.imageshack.us/img15/6599/vlcsnap2010120520h23m49.png 
http://img691.imageshack.us/img691/8016/vlcsnap2010120520h23m57.png

